<?xml version="1.0" encoding="iso-8859-1"?>
<!-- Generator: Adobe Illustrator 19.0.0, SVG Export Plug-In . SVG Version: 6.00 Build 0)  -->
<svg version="1.1" id="Layer_1" xmlns="http://www.w3.org/2000/svg" xmlns:xlink="http://www.w3.org/1999/xlink" x="0px" y="0px"
	 viewBox="0 0 512 512" style="enable-background:new 0 0 512 512;" xml:space="preserve">
<g>
	<g>
		<path d="M431.036,474.964l-37.947,0.205c-1.697,0.042-2.843-0.855-3.365-1.371c-0.522-0.518-1.397-1.638-1.404-3.349
			l-0.453-109.759c-0.011-2.609,2.102-4.743,4.702-4.759l37.72-0.204c6.044-0.033,10.917-4.958,10.884-11.002
			c-0.033-6.024-4.926-10.884-10.942-10.884c-0.02,0-0.041,0-0.06,0l-37.727,0.204c-14.051,0.085-25.539,11.121-26.404,24.949
			h-77.728c-4.115,0-8.191,0.631-12.118,1.879l-71.575,22.748c-0.001,0-0.001,0-0.002,0.001h-0.001
			c-14.473,4.605-24.027,17.531-25.086,31.834l-59.91-31.03c-8.069-4.178-17.282-4.965-25.94-2.215
			c-8.663,2.752-15.734,8.713-19.905,16.773c-2.493,4.804-3.812,10.205-3.812,15.621c0,12.779,7.042,24.361,18.374,30.226
			l122.79,63.585c4.569,2.376,9.668,3.585,14.782,3.585c2.96,0,5.921-0.428,8.79-1.248c0.298-0.068,116.906-37.106,116.906-37.106
			h15.025c0.711,5.94,3.378,11.43,7.694,15.704c5.023,4.973,11.668,7.704,18.722,7.704c0.055,0,0.111,0,0.165,0l37.94-0.205
			c6.044-0.033,10.917-4.958,10.884-11.002C442.006,479.803,437.092,474.894,431.036,474.964z M349.937,451.762
			c-0.606-0.001-3.008,0.408-3.345,0.515c0,0-117.604,37.366-117.63,37.374c-2.553,0.813-5.375,0.575-7.752-0.661l-122.81-63.597
			c-4.039-2.091-6.55-6.225-6.55-10.789c0-1.948,0.454-3.81,1.357-5.549c1.489-2.878,4.011-5.003,7.098-5.985
			c3.087-0.979,6.371-0.7,9.249,0.791c0,0,89.372,46.27,89.538,46.345c5.047,2.586,10.695,4.002,16.498,4.002
			c3.616,0,7.294-0.548,10.918-1.701l59.59-18.935c5.761-1.83,8.946-7.983,7.115-13.744c-1.83-5.761-7.98-8.946-13.744-7.115
			l-59.59,18.935c-3.878,1.232-7.901,0.711-11.21-1.117c-0.016-0.009-0.038-0.012-0.056-0.021c-1.519-0.852-2.854-1.951-3.98-3.287
			c-1.185-1.398-2.078-3.024-2.652-4.819c-2.385-7.498,1.774-15.54,9.269-17.925l71.571-22.746c1.778-0.566,3.626-0.851,5.491-0.851
			h77.752l0.292,70.881H349.937z"/>
	</g>
</g>
<g>
	<g>
		<path d="M241.597,0c-6.044,0-10.943,4.9-10.943,10.943v19.836c0,6.043,4.899,10.943,10.943,10.943
			c6.044,0,10.943-4.9,10.943-10.943V10.943C252.541,4.9,247.641,0,241.597,0z"/>
	</g>
</g>
<g>
	<g>
		<path d="M126.634,111.405h-19.836c-6.044,0-10.943,4.9-10.943,10.943s4.899,10.943,10.943,10.943h19.836
			c6.044,0,10.943-4.9,10.943-10.943S132.678,111.405,126.634,111.405z"/>
	</g>
</g>
<g>
	<g>
		<path d="M376.397,111.405h-19.835c-6.044,0-10.943,4.9-10.943,10.943s4.899,10.943,10.943,10.943h19.835
			c6.044,0,10.943-4.9,10.943-10.943S382.441,111.405,376.397,111.405z"/>
	</g>
</g>
<g>
	<g>
		<path d="M178.832,52.244l-14.026-14.026c-4.275-4.271-11.203-4.271-15.476,0c-4.273,4.273-4.274,11.203,0,15.477l14.026,14.026
			c2.137,2.136,4.938,3.205,7.738,3.205s5.602-1.069,7.738-3.205C183.105,63.448,183.106,56.518,178.832,52.244z"/>
	</g>
</g>
<g>
	<g>
		<path d="M333.864,38.218c-4.273-4.272-11.203-4.272-15.476,0l-14.026,14.026c-4.273,4.273-4.273,11.203,0,15.477
			c2.137,2.136,4.938,3.205,7.738,3.205c2.8,0,5.602-1.069,7.738-3.205l14.026-14.026C338.138,49.421,338.138,42.492,333.864,38.218
			z"/>
	</g>
</g>
<g>
	<g>
		<path d="M347.42,238.328c-2.007-2.867-5.264-4.602-8.762-4.666c-23.679-0.436-46.473,6.529-65.928,20.151
			c-7.529,5.271-14.282,11.364-20.19,18.139V237.65c26.857-3.415,51.023-19.231,64.735-42.979
			c15.545-26.925,15.549-60.393,0.012-87.342c-1.954-3.389-5.568-5.477-9.48-5.477c-0.002,0-0.004,0-0.007,0
			c-7.665,0.004-15.198,1.029-22.436,2.966c-8.705-16.595-22.04-30.595-38.358-40.031c-3.391-1.96-7.57-1.96-10.959,0.002
			c-16.307,9.435-29.63,23.425-38.325,40.002c-7.26-1.932-14.73-2.934-22.324-2.943c-0.004,0-0.009,0-0.012,0
			c-3.913,0-7.528,2.089-9.482,5.48c-15.534,26.961-15.528,60.428,0.015,87.339c13.697,23.734,37.851,39.549,64.736,42.979v34.305
			c-5.908-6.775-12.661-12.866-20.19-18.138c-19.455-13.621-42.246-20.588-65.928-20.151c-3.499,0.064-6.755,1.798-8.762,4.665
			c-2.006,2.866-2.521,6.52-1.385,9.829c7.691,22.396,22.038,41.432,41.487,55.052c16.379,11.469,35.128,18.213,54.778,19.802
			v22.793c0,6.043,4.899,10.943,10.943,10.943c6.044,0,10.943-4.9,10.943-10.943v-22.793c19.649-1.589,38.401-8.334,54.778-19.802
			c19.45-13.619,33.796-32.656,41.487-55.052C349.942,244.848,349.427,241.194,347.42,238.328z M188.43,285.281
			c-10.803-7.564-19.646-17.205-26.117-28.375c12.71,2.26,24.793,7.271,35.598,14.836c10.804,7.565,19.647,17.206,26.116,28.377
			C211.318,297.858,199.232,292.845,188.43,285.281z M224.097,214.063c-16.325-4.55-30.564-15.333-39.223-30.338
			c-10.557-18.278-11.55-40.593-2.975-59.661c6.042,0.607,11.949,2.051,17.647,4.32c12.034,4.749,22.112,12.726,29.437,23.229
			C219.662,171.188,218.03,193.517,224.097,214.063z M218.14,113.026c5.73-10.215,13.746-19.083,23.39-25.808
			c9.678,6.744,17.721,15.651,23.461,25.914c-8.783,4.945-16.712,11.394-23.369,19.109
			C234.988,124.482,227.084,118.006,218.14,113.026z M248.143,216.135c-8.572-19.057-7.581-41.373,2.977-59.659
			c10.557-18.285,29.387-30.301,50.179-32.407c8.573,19.058,7.581,41.374-2.977,59.659
			C287.763,202.015,268.936,214.031,248.143,216.135z M294.766,285.281c-10.802,7.564-22.886,12.576-35.597,14.838
			c6.47-11.171,15.312-20.812,26.116-28.377c10.804-7.565,22.888-12.577,35.598-14.836
			C314.411,268.075,305.568,277.717,294.766,285.281z"/>
	</g>
</g>
<g>
</g>
<g>
</g>
<g>
</g>
<g>
</g>
<g>
</g>
<g>
</g>
<g>
</g>
<g>
</g>
<g>
</g>
<g>
</g>
<g>
</g>
<g>
</g>
<g>
</g>
<g>
</g>
<g>
</g>
</svg>
