<?xml version="1.0" encoding="iso-8859-1"?>
<!-- Generator: Adobe Illustrator 16.0.0, SVG Export Plug-In . SVG Version: 6.00 Build 0)  -->
<!DOCTYPE svg PUBLIC "-//W3C//DTD SVG 1.1//EN" "http://www.w3.org/Graphics/SVG/1.1/DTD/svg11.dtd">
<svg version="1.1" id="Capa_1" xmlns="http://www.w3.org/2000/svg" xmlns:xlink="http://www.w3.org/1999/xlink" x="0px" y="0px"
	 width="169.627px" height="169.628px" viewBox="0 0 169.627 169.628" style="enable-background:new 0 0 169.627 169.628;"
	 xml:space="preserve">
<g>
	<path fill="#fff" d="M159.099,28.407c1.529,1.655,2.399,3.385,2.326,4.627c-0.042,0.744,0.527,1.387,1.255,1.429
		c0.728,0.19,1.393-0.517,1.435-1.257c0.126-2.025-0.949-4.385-3.038-6.637c-2.446-2.645-5.479-4.261-8.11-4.304
		c-0.037,0-0.068,0-0.1,0c-1.187,0-2.142,0.335-2.779,0.994c-0.791,0.799-1.403,2.402,0.301,5.442
		c0.917,1.669,2.378,3.544,4.05,5.168c3.032,2.993,7.684,5.229,10.842,5.229c0.016,0,0.037,0,0.059,0
		c1.239-0.011,2.215-0.369,2.895-1.06c2.9-2.948,1.14-9.234-4.013-14.299c-6.328-6.215-13.748-8.235-17.271-4.67l-9.229,9.395
		c-2.896,2.932-4.53,6.771-4.599,10.8c-0.063,3.499,1.134,6.761,3.28,9.374c-8.163,2.112-11.781,9.938-15.853,18.955
		c-1.012,2.236-1.919,4.601-2.863,6.982c-0.132,0.351-0.295,0.73-0.433,1.086c-0.416-3.921-2.156-7.232-5.067-9.774
		c3.069-0.833,5.205-3.246,5.901-7.021c1.233-6.603-3.254-9.945-11.944-13.835c-3.096-1.387-5.976-3.406-10.01-8.746
		c-0.306-0.39-0.791-0.601-1.271-0.524c-0.49,0.071-0.901,0.406-1.07,0.87c-0.27,0.728-6.505,17.987-1.065,27.82
		c1.83,3.288,4.741,5.389,8.664,6.204c0.274,0.071,0.575,0.103,0.912,0.103c1.377,0,3.491-0.562,4.931-2.102
		c0.586-0.63,0.986-1.397,1.213-2.212c5.759,3.525,7.594,9.682,5.205,17.521c-3.27,6.476-7.746,12.003-15.91,14.027
		c-3.464,0.865-6.89,0.644-10.048-0.485c4.912-3.527,8.266-9.196,9.184-15.728c0.1-0.746-0.417-1.427-1.16-1.516
		c-0.791-0.055-1.419,0.419-1.519,1.155c-0.828,5.964-3.913,11.143-8.446,14.223c-0.295,0.2-0.62,0.321-0.939,0.501
		c-0.319-0.18-0.643-0.306-0.949-0.512c-4.548-3.063-7.614-8.242-8.435-14.212c-0.103-0.735-0.725-1.21-1.519-1.155
		c-0.738,0.105-1.247,0.786-1.16,1.516c0.907,6.531,4.261,12.2,9.186,15.728c-3.156,1.118-6.6,1.34-10.051,0.496
		c-8.163-2.035-12.625-7.541-15.892-13.985c-2.426-7.87-0.588-14.038,5.179-17.562c0.227,0.809,0.614,1.582,1.226,2.201
		c1.442,1.545,3.542,2.102,4.925,2.102c0.335,0,0.63-0.031,0.918-0.103c3.921-0.815,6.837-2.917,8.661-6.204
		c5.442-9.833-0.799-27.108-1.07-27.82c-0.161-0.464-0.572-0.799-1.068-0.87c-0.488-0.103-0.983,0.119-1.271,0.524
		c-4.01,5.334-6.895,7.359-10.003,8.746c-8.701,3.89-13.178,7.243-11.958,13.835c0.704,3.776,2.829,6.188,5.903,7.021
		c-2.911,2.542-4.646,5.859-5.065,9.785c-0.142-0.367-0.303-0.752-0.443-1.118c-0.928-2.37-1.854-4.735-2.858-6.972
		c-4.076-9.007-7.694-16.833-15.841-18.944c2.138-2.613,3.325-5.875,3.272-9.374c-0.076-4.028-1.69-7.868-4.596-10.8l-9.239-9.4
		c-3.493-3.56-10.918-1.545-17.271,4.686c-5.133,5.065-6.905,11.351-4.005,14.289c0.686,0.696,1.656,1.049,2.897,1.06
		c0.024,0,0.045,0,0.056,0c3.164,0,7.808-2.236,10.842-5.229c2.365-2.323,5.115-5.94,5.136-8.503
		c0.011-1.065-0.433-1.73-0.788-2.107c-0.628-0.643-1.582-0.994-2.782-0.994c-0.021,0-0.053,0-0.087,0
		c-2.624,0.037-5.674,1.648-8.132,4.309c-2.091,2.268-3.164,4.622-3.029,6.637c0.056,0.741,0.562,1.437,1.437,1.242
		c0.751-0.048,1.308-0.691,1.252-1.435c-0.092-1.236,0.788-2.977,2.323-4.62c2.268-2.455,4.638-3.391,6.106-3.444
		c0.577-0.103,0.907,0.114,0.973,0.161c0.312,0.591-1.086,3.636-4.316,6.806c-2.446,2.412-6.539,4.438-8.93,4.438
		c-0.021,0-0.032,0-0.045,0c-0.475,0-0.841-0.098-0.997-0.253c-1.551-1.582-0.303-6.275,3.968-10.476
		c5.513-5.416,11.398-6.805,13.445-4.72l9.252,9.408c2.386,2.423,3.741,5.616,3.805,8.931c0.066,3.309-1.176,6.378-3.465,8.63
		c-0.174,0.166-0.374,0.295-0.562,0.454c-0.098,0.058-0.158,0.108-0.232,0.177c-2.183,1.803-4.883,2.782-7.892,2.679
		c-3.32-0.114-6.484-1.511-8.888-3.953l-2.165-2.204c3.981-1.917,13.155-7.24,14.818-15.865c0.135-0.738-0.335-1.447-1.065-1.582
		c-0.765-0.182-1.444,0.335-1.582,1.055c-1.824,9.384-14.86,14.64-14.984,14.692c-0.417,0.158-0.738,0.54-0.814,0.983
		c-0.103,0.442,0.037,0.901,0.351,1.236l3.52,3.586c2.89,2.942,6.697,4.622,10.721,4.768c0.171,0.01,0.351,0.01,0.532,0.01
		c3.262,0,6.297-1.083,8.81-3.035c6.982,0.907,10.259,6.075,14.407,14.977c-4.461-3.615-9.819-4.575-15.536-2.452
		c-0.698,0.258-1.049,1.021-0.788,1.727c0.253,0.696,1.015,1.052,1.722,0.789c7.225-2.658,13.655,0.319,18.101,8.43
		c0.053,0.108,0.134,0.14,0.221,0.221c0.114,0.324,0.253,0.599,0.367,0.918c1.231,3.122,2.54,6.373,4.1,9.474
		c0.074,0.242,0.113,0.469,0.182,0.712c0.103,0.284,0.288,0.512,0.514,0.67c2.969,5.5,7.029,10.336,13.479,12.993
		c-2.296,0.264-4.564,0.575-6.75,0.929c-0.343,0.053-0.675,0.089-1.018,0.132c-0.079-0.021-0.113-0.09-0.198-0.09
		c-0.232,0.031-0.488,0.011-0.72,0.011c-8.58,0-13.969-3.981-15.206-11.265c-0.119-0.732-0.835-1.244-1.55-1.102
		c-0.738,0.115-1.236,0.822-1.1,1.556c1.01,5.885,4.39,9.982,9.569,12.018c-4.084,0.369-7.523,0.533-10.417,0.147
		c0.34-3.949,0.427-13.22-5.875-18.578c-2.339-1.985-5.735-2.314-8.717-2.589c-2.592-0.248-5.055-0.482-5.999-1.685
		c-0.82-1.016-0.546-2.036,0.042-3.597c0.472-1.247,1.107-2.993-0.334-4.203c-2.922-2.505-8.854-0.311-13.078,4.775
		c-4.335,5.21-5.4,11.274-2.413,13.821c1.182,1.013,2.813,0.422,4.19-0.391c1.139-0.675,2.284-1.318,3.457-0.648
		c1.34,0.754,1.98,3.164,2.666,5.711c0.788,2.933,1.685,6.255,4.013,8.237c2.911,2.484,6.75,3.733,11.404,3.733
		c5.125,0,9.376-1.539,9.563-1.618c0.168-0.063,0.308-0.175,0.442-0.312c4.295,0.617,9.176,0.132,14.42-0.396
		c2.375-0.242,4.825-0.622,7.293-1.013c0.335-0.058,0.686-0.105,1.028-0.143c-3.322,2.484-5.358,5.896-5.914,10.036
		c-1.664-2.215-4.225-4.14-7.96-4.14c-1.495,0-3.109,0.311-4.799,0.912c-8.237,2.947-9.073,10.024-7.734,22.913
		c0.475,4.661,0.063,9.503-3.483,17.94c-0.044,0.084-0.021,0.168-0.032,0.264c-0.023,0.084-0.034,0.147-0.034,0.231
		c-0.011,0.322,0.056,0.622,0.256,0.87l0,0c0,0.006,0,0.006,0,0.006c0.274,0.332,0.662,0.501,1.047,0.501
		c0.082,0,0.15-0.006,0.232-0.021c1.015-0.179,24.943-4.52,32.659-17.334c2.576-4.287,3.05-9.022,1.416-14.063
		c-0.696-2.194-3.742-5.369-7.436-5.369c-0.545,0-1.06,0.164-1.592,0.307c-0.267-7.225,4.103-12.177,12.279-14.064
		c3.536-0.201,7.003,0.021,10.307,1.012c-1.624,1.019-3.217,2.194-4.714,3.766c-3.942,4.145-5.906,9.492-5.513,15.051
		c0.442,6.148,3.673,12.023,8.888,16.115c0.25,0.195,0.551,0.295,0.833,0.295c0.398,0,0.789-0.168,1.052-0.517
		c0.464-0.58,0.361-1.435-0.222-1.903c-4.611-3.639-7.483-8.807-7.857-14.186c-0.335-4.81,1.35-9.418,4.77-12.999
		c1.89-1.967,3.902-3.349,5.977-4.382c2.102,1.018,4.113,2.394,5.988,4.382c3.417,3.581,5.1,8.2,4.772,12.999
		c-0.374,5.379-3.243,10.547-7.86,14.186c-0.58,0.469-0.686,1.318-0.221,1.903c0.269,0.338,0.658,0.517,1.052,0.517
		c0.303,0,0.588-0.1,0.844-0.295c5.21-4.107,8.432-9.982,8.88-16.115c0.391-5.559-1.565-10.916-5.516-15.051
		c-1.487-1.582-3.085-2.769-4.709-3.771c3.293-0.997,6.761-1.218,10.283-1.013c8.205,1.898,12.566,6.855,12.308,14.07
		c-0.532-0.133-1.055-0.301-1.598-0.301c-3.686,0-6.734,3.174-7.446,5.357c-1.64,5.062-1.16,9.782,1.424,14.069
		c7.71,12.814,31.641,17.155,32.659,17.334c0.084,0.016,0.152,0.021,0.231,0.021c0.026,0,0.048,0,0.074,0
		c0.754,0,1.35-0.597,1.35-1.351c0-0.332-0.116-0.633-0.321-0.87c-3.407-8.21-3.803-12.973-3.333-17.587
		c1.34-12.888,0.522-19.954-7.715-22.918c-1.688-0.596-3.307-0.912-4.805-0.912c-3.728,0-6.296,1.914-7.973,4.145
		c-0.56-4.16-2.584-7.557-5.912-10.041c0.332,0.053,0.696,0.111,1.034,0.148c2.457,0.369,4.898,0.765,7.287,1.007
		c5.242,0.538,10.125,1.018,14.418,0.396c0.127,0.111,0.269,0.248,0.448,0.312c0.18,0.073,4.425,1.608,9.566,1.608
		c4.65,0,8.495-1.239,11.4-3.729c2.342-1.978,3.238-5.3,4.014-8.232c0.686-2.547,1.334-4.957,2.674-5.711
		c1.165-0.67,2.304-0.031,3.443,0.644c1.408,0.828,3.032,1.403,4.203,0.391c2.979-2.542,1.908-8.606-2.421-13.816
		c-4.229-5.076-10.156-7.275-13.083-4.775c-1.44,1.231-0.786,2.956-0.333,4.208c0.57,1.543,0.87,2.576,0.053,3.597
		c-0.976,1.205-3.417,1.437-6.012,1.685c-2.995,0.285-6.391,0.604-8.711,2.59c-6.308,5.353-6.229,14.628-5.88,18.572
		c-2.896,0.364-6.328,0.222-10.41-0.137c5.179-2.051,8.574-6.144,9.566-12.028c0.121-0.738-0.359-1.445-1.092-1.556
		c-0.733-0.158-1.45,0.363-1.562,1.102c-1.239,7.283-6.639,11.265-15.214,11.265c-0.221,0-0.448-0.006-0.68-0.011
		c-0.095-0.006-0.138,0.074-0.222,0.09c-0.343-0.059-0.681-0.096-1.018-0.138c-2.194-0.337-4.462-0.664-6.739-0.917
		c6.434-2.658,10.494-7.515,13.463-12.999c0.231-0.158,0.416-0.386,0.521-0.675c0.09-0.248,0.111-0.48,0.19-0.723
		c1.545-3.096,2.848-6.32,4.071-9.442c0.115-0.324,0.258-0.599,0.374-0.917c0.079-0.092,0.169-0.129,0.232-0.232
		c4.419-8.11,10.868-11.108,18.082-8.435c0.712,0.258,1.472-0.103,1.735-0.789c0.258-0.696-0.105-1.474-0.786-1.732
		c-5.716-2.106-11.074-1.157-15.524,2.45c4.134-8.904,7.419-14.078,14.412-14.979c2.578,1.978,5.658,3.024,8.812,3.024
		c4.029,0,8.121-1.593,11.243-4.768l3.512-3.586c0.327-0.329,0.454-0.788,0.354-1.231c-0.1-0.442-0.396-0.804-0.817-0.978
		c-0.126-0.053-13.168-5.287-14.981-14.692c-0.127-0.741-0.802-1.236-1.582-1.065c-0.744,0.14-1.219,0.854-1.061,1.582
		c1.683,8.635,10.848,13.932,14.813,15.865l-2.151,2.205c-4.704,4.778-12.039,5.215-16.833,1.237
		c-0.042-0.05-0.09-0.082-0.132-0.113c-0.195-0.169-0.417-0.304-0.591-0.48c-2.294-2.251-3.518-5.31-3.475-8.63
		c0.062-3.316,1.413-6.507,3.817-8.938l9.234-9.395c2.083-2.106,7.963-0.686,13.452,4.709c4.276,4.206,5.526,8.899,3.977,10.481
		c-0.148,0.15-0.533,0.242-1.008,0.253c-0.011,0-0.021,0-0.037,0c-2.399,0-6.48-2.035-8.948-4.443
		c-3.217-3.159-4.609-6.188-4.304-6.79c0.053-0.063,0.38-0.242,0.96-0.171C154.443,25.008,156.822,25.939,159.099,28.407z
		 M102.289,68.053c-0.185,0-0.301-0.011-0.354-0.021c-3.158-0.675-5.399-2.268-6.85-4.883c-3.752-6.782-0.997-18.31,0.475-23.235
		c3.85,4.612,6.829,6.394,9.481,7.57c8.891,3.963,11.222,6.415,10.389,10.877c-0.622,3.451-2.531,5.199-5.632,5.199
		c-0.237,0-0.454-0.021-0.659-0.031c-7.567-2.345-7.868-7.987-7.884-8.269c-0.016-0.738-0.612-1.321-1.351-1.321
		c-0.005,0-0.016,0-0.021,0c-0.744,0.01-1.34,0.625-1.329,1.371c0.005,0.29,0.264,6.457,7.352,9.811
		c-0.048,0.654-0.228,1.237-0.659,1.695C104.461,67.67,103.159,68.053,102.289,68.053z M54.126,58.36
		c-0.831-4.462,1.498-6.885,10.402-10.866c2.655-1.197,5.632-2.969,9.471-7.581c1.463,4.936,4.234,16.443,0.479,23.243
		c-1.453,2.607-3.694,4.211-6.858,4.875c-0.058,0.011-0.166,0.032-0.351,0.032c-0.865,0-2.16-0.377-2.958-1.237
		c-0.438-0.464-0.617-1.041-0.659-1.706c7.096-3.354,7.349-9.527,7.354-9.801c0.01-0.756-0.583-1.361-1.327-1.371
		c-0.005,0-0.018,0-0.023,0c-0.744,0-1.339,0.583-1.35,1.329c0,0.059-0.187,5.896-7.894,8.251c-0.206,0.021-0.417,0.031-0.654,0.031
		C56.661,63.555,54.765,61.806,54.126,58.36z M29.568,103.566c-3.997,0-7.259-1.028-9.661-3.09c-1.69-1.45-2.437-4.198-3.164-6.872
		c-0.826-3.116-1.625-6.059-3.942-7.351c-0.762-0.433-1.561-0.654-2.371-0.654c-1.524,0-2.782,0.744-3.771,1.34
		c-0.398,0.231-1.015,0.58-1.068,0.644c-1.55-1.309-0.788-5.748,2.748-10.015c2.813-3.391,5.957-4.899,7.81-4.899
		c0.588,0,1.073,0.145,1.376,0.335c0.032,0.211-0.221,0.896-0.372,1.339c-0.578,1.561-1.463,3.937,0.367,6.204
		c1.685,2.109,4.683,2.368,7.862,2.679c2.722,0.259,5.529,0.538,7.225,1.957c5.121,4.371,5.227,12.292,4.957,15.994
		c-2.549-0.754-4.632-2.142-6.415-4.445c1.627-2.273,1.421-5.432-0.675-7.362c-2.17-1.998-5.875-1.851-7.868,0.359
		c-2.057,2.277-1.906,5.811,0.346,7.904c1.021,0.955,2.365,1.472,3.76,1.472c0.847,0,1.672-0.243,2.418-0.606
		c1.68,2.136,3.607,3.56,5.767,4.509C33.391,103.287,31.572,103.566,29.568,103.566z M24.777,95.63
		c-1.17-1.07-1.242-2.927-0.176-4.107c0.556-0.602,1.318-0.944,2.123-0.944c0.712,0,1.392,0.269,1.912,0.754
		c1.17,1.087,1.247,2.933,0.176,4.118C27.77,96.595,25.906,96.68,24.777,95.63z M63.378,134.722l-5.513-10.684
		c0.367-1.129,0.593-2.226,0.707-3.291l6.74,9.746c0.079,0.11,0.211,0.089,0.306,0.147c-0.327,1.013-0.77,1.993-1.336,2.964
		C64.02,133.989,63.658,134.337,63.378,134.722z M39.358,116.766l16.524,1.915c0.166,1.149,0.063,2.398-0.313,3.738L38.322,120.6
		C38.509,119.065,38.878,117.842,39.358,116.766z M54.63,125.045c-0.499,1.097-1.092,2.231-1.799,3.386l-14.612-0.891
		c-0.092-1.572-0.113-2.959-0.071-4.235L54.63,125.045z M48.695,134.185l-10.012-0.333c-0.031-0.538-0.037-1.102-0.092-1.603
		c-0.082-0.718-0.113-1.318-0.166-1.988l12.672,0.78C50.353,132.085,49.554,133.135,48.695,134.185z M43.548,140.017l-5.118-0.264
		c0.166-1.155,0.248-2.193,0.29-3.201l7.765,0.259C45.525,137.901,44.542,138.967,43.548,140.017z M37.895,142.437l3.101,0.153
		c-1.508,1.472-2.956,2.832-4.306,4.04C37.193,145.132,37.615,143.708,37.895,142.437z M42.739,144.657l-0.448,2.736
		c-1.279,0.401-2.495,0.755-3.57,1.045C39.915,147.357,41.27,146.092,42.739,144.657z M45.923,141.435
		c0.823-0.859,1.648-1.761,2.468-2.684l0.277,6.291c-1.184,0.496-2.339,0.955-3.478,1.36l0.788-4.777
		C45.979,141.562,45.923,141.509,45.923,141.435z M50.952,135.692c0.612-0.775,1.227-1.545,1.793-2.331l2.102,8.485
		c0.016,0.058,0.063,0.084,0.084,0.115c-1.176,0.686-2.371,1.303-3.607,1.898L50.952,135.692z M54.791,130.366
		c0.633-1.018,1.21-2.046,1.716-3.048l5.023,9.729c-1.237,1.266-2.7,2.389-4.245,3.448L54.791,130.366z M44.552,112.157
		c1.395-0.512,2.706-0.771,3.895-0.771c3.699,0,5.709,2.5,6.705,4.478l-14.119-1.635C41.956,113.344,43.116,112.669,44.552,112.157z
		 M65.419,121.739c0.593,1.829,0.794,3.564,0.754,5.263l-6.009-8.681c0.129-0.01,0.274-0.073,0.401-0.073
		C62.983,118.242,65.045,120.547,65.419,121.739z M130.196,116.766c0.479,1.076,0.849,2.31,1.039,3.839l-17.25,1.82
		c-0.363-1.34-0.479-2.584-0.311-3.734L130.196,116.766z M105.284,133.588c-0.569-0.97-1.012-1.951-1.339-2.953
		c0.095-0.089,0.231-0.053,0.306-0.158l6.75-9.734c0.11,1.065,0.332,2.157,0.707,3.29l-5.521,10.685
		C105.89,134.337,105.527,133.989,105.284,133.588z M113.042,127.297c0.512,1.018,1.075,2.041,1.708,3.063l-2.505,10.104
		c-1.545-1.044-3.006-2.173-4.239-3.449L113.042,127.297z M114.703,141.856l2.104-8.495c0.57,0.786,1.187,1.556,1.793,2.331
		l-0.348,8.174c-1.239-0.569-2.437-1.202-3.623-1.888C114.634,141.931,114.692,141.909,114.703,141.856z M126.003,140.017
		c-0.991-1.039-1.967-2.115-2.938-3.206l7.768-0.259c0.043,1.008,0.111,2.046,0.29,3.201L126.003,140.017z M130.945,132.254
		c-0.053,0.501-0.059,1.06-0.085,1.598l-10.014,0.333c-0.839-1.034-1.65-2.1-2.389-3.144l12.666-0.78
		C131.055,130.931,131.018,131.531,130.945,132.254z M121.163,138.751c0.817,0.923,1.646,1.824,2.468,2.684
		c0,0.074-0.063,0.111-0.053,0.19l0.786,4.777c-1.14-0.405-2.294-0.864-3.476-1.36L121.163,138.751z M126.816,144.651
		c1.46,1.44,2.826,2.706,4.018,3.787c-1.075-0.296-2.288-0.644-3.569-1.045L126.816,144.651z M128.561,142.59l3.085-0.153
		c0.301,1.271,0.723,2.695,1.208,4.193C131.509,145.427,130.064,144.066,128.561,142.59z M131.334,127.54l-14.612,0.891
		c-0.707-1.16-1.303-2.289-1.798-3.386l16.479-1.74C131.451,124.581,131.424,125.968,131.334,127.54z M108.992,118.242
		c0.121,0,0.269,0.053,0.4,0.063l-6.022,8.69c-0.042-1.688,0.153-3.443,0.76-5.278C104.509,120.552,106.576,118.242,108.992,118.242
		z M121.115,111.403c1.192,0,2.5,0.264,3.902,0.759c1.435,0.522,2.584,1.197,3.513,2.099l-14.123,1.635
		C115.415,113.913,117.423,111.403,121.115,111.403z M136.967,85.167c1.688-1.449,4.498-1.703,7.219-1.961
		c3.18-0.307,6.191-0.586,7.868-2.679c1.835-2.289,0.96-4.651,0.38-6.209c-0.169-0.453-0.417-1.128-0.454-1.226
		c1.435-1.226,5.511-0.055,9.255,4.438c3.55,4.271,4.298,8.714,2.896,9.985c-0.222-0.011-0.817-0.359-1.234-0.602
		c-1.529-0.923-3.965-1.914-6.153-0.691c-2.331,1.309-3.117,4.251-3.945,7.367c-0.728,2.674-1.46,5.438-3.153,6.871
		c-2.41,2.062-5.674,3.102-9.655,3.102c-2.015,0-3.845-0.29-5.337-0.58c2.157-0.939,4.103-2.373,5.764-4.498
		c0.765,0.363,1.571,0.605,2.415,0.605h0.006c1.397,0,2.727-0.537,3.76-1.477c2.246-2.088,2.395-5.626,0.332-7.904
		c-1.988-2.204-5.689-2.368-7.868-0.358c-2.088,1.93-2.288,5.089-0.675,7.361c-1.756,2.315-3.865,3.713-6.407,4.435
		C131.747,97.465,131.846,89.534,136.967,85.167z M140.748,95.45c-1.07-1.186-0.996-3.031,0.18-4.118
		c0.527-0.485,1.208-0.754,1.909-0.754c0.802,0,1.561,0.332,2.125,0.944c1.055,1.181,0.991,3.037-0.18,4.107
		c-0.532,0.49-1.218,0.765-1.925,0.765c0,0,0,0-0.005,0C142.04,96.395,141.296,96.058,140.748,95.45z M82.408,100.224
		c0.81-0.264,1.614-0.564,2.376-0.939c0.778,0.359,1.566,0.659,2.365,0.939c-0.794,0.242-1.593,0.495-2.371,0.816
		C84,100.714,83.202,100.46,82.408,100.224z"/>
</g>
<g>
</g>
<g>
</g>
<g>
</g>
<g>
</g>
<g>
</g>
<g>
</g>
<g>
</g>
<g>
</g>
<g>
</g>
<g>
</g>
<g>
</g>
<g>
</g>
<g>
</g>
<g>
</g>
<g>
</g>
</svg>
