<?xml version="1.0" encoding="utf-8"?>
<!-- Generator: Adobe Illustrator 22.0.1, SVG Export Plug-In . SVG Version: 6.00 Build 0)  -->
<svg version="1.1" id="Слой_1" xmlns="http://www.w3.org/2000/svg" xmlns:xlink="http://www.w3.org/1999/xlink" x="0px" y="0px"
	 viewBox="0 0 100 125" style="enable-background:new 0 0 100 125;" xml:space="preserve">
<path d="M53,12.6c-0.1,0-0.2,0-0.3,0.1c-7,1.8-10.2,3.9-11.3,4.7c-0.3-0.1-3.4-1.2-4.1-1.5c-1.4-0.4-1.7-0.5-2.3-0.2
	c-0.4,0.2-0.7,0.6-0.8,1.1s0.1,0.9,0.4,1.3c0.1,0.1,3.4,3.8,1.8,8.6c-0.2,0.5-0.5,1.2-0.8,1.9c-1.1,2.5-2.6,5.9-2.6,10.6
	c0,3.7,1.2,6.8,3.5,9.1c3.8,3.8,9.4,4.4,12.1,4.5v9.4c-2.4-2.4-6.5-3.7-12.1-3.7c-1.3,0-2.7,0.1-4.2,0.2c-0.5,0-0.9,0.3-1.2,0.7
	c-0.3,0.5-0.3,1-0.1,1.4c4,8.2,8.6,12.3,13.5,12.3c1.6,0,3-0.5,4-1v13.7c0,0.8,0.7,1.5,1.5,1.5s1.5-0.7,1.5-1.5v-8.6
	c1,0.5,2.2,0.9,3.6,0.9c5,0,9.5-4.2,13.5-12.3c0.2-0.4,0.2-1,0-1.4c-0.3-0.5-0.7-0.7-1.2-0.8c-1.5-0.1-2.8-0.2-4.1-0.2
	c-5.4,0-9.3,1.1-11.8,3.4V52.9c0.3,0,0.7,0,1,0c4.4,0,8.3-1.5,10.8-4.2c2.3-2.4,3.2-5.7,3-9.5c-0.3-4.5-1.6-6.7-2.7-8.7
	c-0.5-0.9-1-1.7-1.3-2.7c-1.8-5,1.8-9.8,1.9-9.8c0.4-0.5,0.4-1.3,0-1.8s-1.1-0.8-1.7-0.6c-0.2,0.1-1.7,0.6-3.9,1.5L54,13
	C53.8,12.7,53.4,12.6,53,12.6L53,12.6z M52.6,15.8l3.1,2.8c-1.9,0.9-3.9,2.1-5.9,3.6l-0.1-0.1c-1.8-1.3-3.6-2.4-5.2-3.2
	C46.1,18.1,48.6,16.9,52.6,15.8L52.6,15.8z M38.9,19.7c2.3,0.9,5.4,2.2,8.5,4.4c-2.9,2.5-5.5,5.7-6.7,9.4
	c-2.1,6.4-0.8,10.8,0.6,13.3c0.4,0.7,0.8,1.3,1.2,1.8c-1.4-0.5-2.8-1.3-3.9-2.4c-1.8-1.7-2.6-4-2.6-6.9c0-4,1.3-7,2.3-9.4
	c0.3-0.7,0.7-1.5,0.9-2.1C40.3,24.5,39.8,21.7,38.9,19.7L38.9,19.7z M59.9,20c-0.9,2.3-1.5,5.5-0.3,8.9c0.5,1.3,1,2.2,1.5,3.2
	c1.1,1.8,2,3.5,2.3,7.4c0.2,3-0.5,5.4-2.2,7.2c-1.9,2.1-5,3.2-8.5,3.2c-2.3,0-4.6-0.6-6-1.5h-0.1c-0.3-0.2-6.3-3.9-3-13.9
	C46,27,54.8,22.2,59.9,20L59.9,20z M36.6,61.5c5.1,0,8.7,1.1,10.4,3.3c1.3,1.6,1.3,3.3,1.2,4.1c-0.6,0.4-1.9,1.2-3.5,1.2
	c-3.3,0-6.6-3-9.7-8.6C35.5,61.5,36,61.5,36.6,61.5L36.6,61.5z M63.5,66.5c0.5,0,1.1,0,1.6,0c-3.1,5.6-6.5,8.6-9.7,8.6
	c-1.6,0-2.9-0.8-3.4-1.2c-0.1-0.8-0.1-2.6,1.2-4.1C54.8,67.6,58.4,66.5,63.5,66.5L63.5,66.5z"/>
</svg>
