<svg xmlns="http://www.w3.org/2000/svg" xmlns:xlink="http://www.w3.org/1999/xlink" version="1.1" x="0px" y="0px" viewBox="0 0 24 30" enable-background="new 0 0 24 24" xml:space="preserve"><path d="M18.619,4.097c-1.403-2.14-3.629-3.224-6.616-3.224c-2.986,0-5.212,1.084-6.615,3.224c-1.132,1.725-1.706,4.099-1.706,7.054  l-0.006,9.681v1.143c0,0.33,0.206,0.646,2.707,0.904c1.566,0.16,3.618,0.248,5.775,0.248c2.136,0,4.129-0.088,5.609-0.248  c1.874-0.203,2.539-0.44,2.539-0.904v-1.143l0.019-9.681C20.325,8.196,19.75,5.822,18.619,4.097z M19.691,21.88  c-0.479,0.274-3.239,0.63-7.533,0.63c-4.411,0-7.358-0.365-7.867-0.638v-0.488c0.384,0.125,1.008,0.244,2.026,0.352  c1.52,0.16,3.538,0.249,5.686,0.249c1.082,0,2.135-0.022,3.126-0.067c0.17-0.006,0.302-0.15,0.294-0.32  c-0.008-0.171-0.148-0.301-0.321-0.294c-0.888,0.038-1.825,0.062-2.791,0.064v-8.61c0.527-0.128,0.983-0.472,1.253-0.95  c0.006-0.013,0.012-0.023,0.018-0.036c0.146-0.271,0.227-0.571,0.232-0.878l0.013-0.001c-0.052-0.312,0.213-2.113,0.417-3.293  l0.072-0.417l-0.418,0.059c-0.014,0.001-0.028,0.005-0.04,0.006c-0.011-0.214-0.048-0.465-0.149-0.646l-0.074-0.133l-0.15-0.021  c-0.23-0.033-1.271-0.16-1.825,0.209c-0.547-0.276-0.982-0.318-1.014-0.32l-0.08-0.008L10.49,6.361  c-0.074,0.034-0.288,0.131-0.745,1.123C9.657,7.455,9.582,7.436,9.521,7.429c-0.098-0.01-0.193,0.028-0.26,0.101  C9.197,7.602,9.168,7.703,9.189,7.798L9.59,9.75c0.034,0.166,0.196,0.274,0.364,0.24c0.166-0.036,0.273-0.199,0.24-0.365  l-0.293-1.42c0.77,0.357,2.207,1.214,2.829,1.608c0.371,0.318,0.422,0.5,0.461,0.891c0.027,0.273-0.027,0.543-0.156,0.779  c0,0.002,0,0.002,0,0.004c-0.003,0.003-0.006,0.008-0.008,0.012c-0.217,0.392-0.609,0.65-1.055,0.694h-0.005  c-0.664,0.065-1.271-0.354-1.446-0.996c-0.001-0.011-0.005-0.021-0.009-0.029c0-0.001-0.002-0.005-0.002-0.006  c-0.06-0.159-0.236-0.24-0.396-0.182c-0.155,0.059-0.237,0.229-0.185,0.386c0,0,0,0.002,0.001,0.004  c0.227,0.817,0.937,1.384,1.763,1.442v8.556c-4.265-0.016-6.981-0.374-7.4-0.646c-0.002-0.001-0.002-0.005-0.004-0.006l0.007-9.565  c0-4.408,1.337-9.661,7.705-9.661c6.37,0,7.707,5.253,7.707,9.661l-0.019,9.681V21.88z M12.296,7.911  C12.024,8.103,11.81,8.3,11.664,8.45c-0.451-0.263-0.939-0.532-1.35-0.729c0.146-0.306,0.307-0.61,0.407-0.75  C11.002,7.029,11.693,7.234,12.296,7.911z M12.289,7.058c0.253-0.047,0.598-0.055,0.925-0.024c0.022,0.106,0.031,0.245,0.031,0.372  c-0.146,0.052-0.284,0.113-0.415,0.182C12.656,7.377,12.472,7.204,12.289,7.058z M13.559,7.949  c-0.069,0.416-0.163,1.011-0.238,1.572c-0.061-0.062-0.128-0.124-0.207-0.19c-0.01-0.01-0.021-0.018-0.031-0.025  c-0.01-0.006-0.373-0.235-0.869-0.532C12.496,8.508,12.968,8.138,13.559,7.949z"/><text x="0" y="39" fill="#000000" font-size="5px" font-weight="bold" font-family="'Helvetica Neue', Helvetica, Arial-Unicode, Arial, Sans-serif">Created by Maria Marin</text><text x="0" y="44" fill="#000000" font-size="5px" font-weight="bold" font-family="'Helvetica Neue', Helvetica, Arial-Unicode, Arial, Sans-serif">from the Noun Project</text></svg>