<?xml version="1.0" encoding="iso-8859-1"?>
<!-- Generator: Adobe Illustrator 16.0.0, SVG Export Plug-In . SVG Version: 6.00 Build 0)  -->
<!DOCTYPE svg PUBLIC "-//W3C//DTD SVG 1.1//EN" "http://www.w3.org/Graphics/SVG/1.1/DTD/svg11.dtd">
<svg version="1.1" id="Capa_1" xmlns="http://www.w3.org/2000/svg" xmlns:xlink="http://www.w3.org/1999/xlink" x="0px" y="0px"
	 width="193.322px" height="193.322px" viewBox="0 0 193.322 193.322" style="enable-background:new 0 0 193.322 193.322;"
	 xml:space="preserve">
<g>
	<g>
		<path d="M189.895,89.631c2.863-4.023,4.014-9.117,3.144-13.987c-1.467-8.158-9.329-13.624-17.461-12.15
			c-1.176,0.211-1.956,1.334-1.745,2.508c0.211,1.171,1.339,1.943,2.505,1.743c5.79-1.052,11.406,2.84,12.456,8.662
			c0.669,3.726-0.206,7.631-2.41,10.708c-2.125,2.982-5.253,4.92-8.796,5.46c-8.812,1.35-13.943-4.503-22.249-14.969
			c-1.039-1.308-2.03-2.724-3.032-4.116c1.461-0.053,2.958-0.448,4.403-1.263c3.992-2.251,5.41-7.333,3.169-11.346
			c-1.908-3.401-6.254-4.612-9.66-2.7c-1.424,0.799-2.452,2.106-2.891,3.683c-0.432,1.577-0.237,3.222,0.564,4.638
			c0.696,1.236,1.83,2.128,3.196,2.51c0.337,0.098,0.68,0.158,1.022,0.185c-2.151,0.119-3.939-1.458-5.157-3.014
			C140.383,57.382,132.398,49,118.914,49c-0.031,0-0.068,0-0.1,0c-6.813,0.024-12.979,2.745-17.39,7.676
			c-0.98,1.1-1.787,2.35-2.547,3.612v-6.41c4.284-0.503,8.276-2.431,11.33-5.708c3.507-3.752,5.416-8.704,5.363-13.954l-0.053-6.265
			c-0.006-0.723-0.375-1.397-0.981-1.793c-0.606-0.393-1.371-0.459-2.035-0.166c-0.158,0.068-15.979,6.832-25.64,0.319
			c-0.989-0.675-2.333-0.412-2.998,0.583c-0.67,0.989-0.403,2.333,0.583,2.996c8.878,5.99,21.162,3.037,26.778,1.184l0.026,3.185
			c0.031,4.137-1.455,8.032-4.203,10.969c-2.716,2.911-6.336,4.525-10.19,4.556c-0.045,0-0.087,0-0.129,0
			c-3.813,0-7.415-1.553-10.149-4.385c-2.79-2.893-4.351-6.761-4.39-10.895l-0.134-16.4c-0.005-0.947,0.448-1.891,1.35-2.813
			c2.576-2.613,8.127-4.338,14.154-4.385c6.795-0.077,12.221,2.721,12.242,5.236c-0.084,1.266-5.843,4.559-11.994,4.611
			c-5.016,0.019-8.883-1.236-9.292-1.635c0.166-0.67,2.845-3.193,8.601-2.938c2.643,0.108,4.854,0.826,5.777,1.878
			c0.78,0.896,2.136,0.983,3.037,0.195c0.896-0.789,0.992-2.149,0.195-3.045c-1.74-1.993-4.883-3.18-8.841-3.343
			c-4.543-0.156-8.83,1.113-11.282,3.483c-1.192,1.158-1.819,2.447-1.809,3.731c0.05,5.945,12.285,5.951,13.645,6.001
			c3.349-0.026,7.217-0.912,10.344-2.365c3.855-1.788,5.959-4.132,5.938-6.6c-0.053-5.453-7.066-9.526-16.34-9.526
			c-0.087,0-0.169,0-0.253,0C90.2,6.649,83.767,8.771,80.329,12.265c-1.711,1.743-2.603,3.773-2.586,5.858l0.134,16.417
			c0.047,5.247,2.036,10.172,5.605,13.861c3.035,3.144,6.911,4.983,11.08,5.487v6.555c-0.788-1.323-1.629-2.607-2.655-3.752
			C87.5,51.76,81.328,49.04,74.522,49.016c-0.037,0-0.068,0-0.108,0c-13.5,0-21.486,8.409-28.067,17.223
			c-1.231,1.532-2.998,2.916-5.168,2.969c1.716-0.124,3.349-1.081,4.255-2.689c0.804-1.418,1.004-3.072,0.562-4.648
			c-0.438-1.577-1.464-2.879-2.885-3.678c-3.401-1.912-7.739-0.702-9.666,2.706c-2.241,4.008-0.815,9.094,3.174,11.34
			c1.453,0.815,2.937,1.205,4.414,1.258c-1.01,1.387-2.004,2.813-3.035,4.116C29.693,88.076,24.546,93.924,15.75,92.58
			c-3.544-0.541-6.668-2.479-8.796-5.461c-2.199-3.077-3.075-6.977-2.405-10.702c0.509-2.819,2.081-5.276,4.43-6.906
			c2.347-1.643,5.194-2.262,8.013-1.756c1.181,0.206,2.294-0.572,2.505-1.742c0.211-1.179-0.567-2.297-1.743-2.508
			c-3.96-0.712-7.95,0.163-11.248,2.457c-3.301,2.297-5.503,5.735-6.212,9.688c-0.878,4.865,0.266,9.964,3.138,13.982
			c2.668,3.731,6.539,6.17,10.942,7.035c-4.403,0.865-8.279,3.304-10.942,7.026c-2.872,4.029-4.021,9.123-3.143,13.99
			c1.464,8.158,9.326,13.611,17.46,12.15c1.176-0.211,1.954-1.334,1.743-2.505c-0.211-1.181-1.35-1.978-2.505-1.745
			c-5.816,1.018-11.406-2.843-12.448-8.664c-0.669-3.719,0.206-7.626,2.41-10.7c2.125-2.99,5.252-4.92,8.796-5.469
			c8.801-1.35,13.943,4.504,22.249,14.977c1.036,1.303,2.036,2.722,3.04,4.113c-1.471,0.058-2.961,0.443-4.419,1.255
			c-3.989,2.252-5.41,7.33-3.169,11.349c1.302,2.305,3.715,3.607,6.193,3.607c1.179,0,2.365-0.296,3.467-0.907
			c1.426-0.791,2.452-2.109,2.89-3.681c0.442-1.577,0.237-3.223-0.562-4.641c-0.902-1.604-2.523-2.563-4.234-2.7
			c2.149-0.2,3.942,1.45,5.168,3.011c6.571,8.802,14.552,17.197,28.042,17.197c0.031,0,0.071,0,0.103,0
			c6.806-0.032,12.976-2.753,17.384-7.679c0.981-1.097,1.788-2.362,2.553-3.617v6.412c-4.293,0.507-8.277,2.437-11.338,5.711
			c-3.507,3.75-5.408,8.707-5.363,13.954l0.053,6.265c0.005,0.723,0.375,1.397,0.983,1.793c0.617,0.396,1.376,0.464,2.036,0.164
			c0.158-0.063,15.973-6.835,25.639-0.322c0.986,0.67,2.331,0.406,2.996-0.574c0.669-0.997,0.405-2.342-0.58-2.996
			c-8.889-5.99-21.16-3.048-26.773-1.191l-0.029-3.186c-0.031-4.145,1.458-8.031,4.203-10.969c2.716-2.91,6.339-4.524,10.199-4.556
			c3.937,0.026,7.512,1.519,10.275,4.388c2.79,2.89,4.351,6.76,4.394,10.895l0.126,16.4c0.006,0.949-0.448,1.893-1.35,2.811
			c-2.573,2.615-8.124,4.34-14.151,4.383c-0.071,0-0.135,0-0.206,0c-6.874,0-12.015-2.753-12.036-5.242
			c0.076-1.266,5.843-4.557,11.994-4.609c5.092,0.068,8.889,1.245,9.284,1.635c-0.158,0.665-2.848,3.164-8.593,2.938
			c-2.639-0.11-4.854-0.828-5.777-1.877c-0.783-0.896-2.149-0.986-3.046-0.195s-0.983,2.151-0.195,3.048
			c1.748,1.993,4.891,3.175,8.849,3.344c4.559,0.147,8.83-1.118,11.282-3.491c1.191-1.16,1.819-2.447,1.809-3.723
			c-0.063-5.954-12.324-6.044-13.645-6.002c-3.349,0.021-7.217,0.907-10.347,2.363c-3.847,1.787-5.951,4.134-5.93,6.602
			c0.053,5.453,7.059,9.529,16.34,9.529c0.087,0,0.168,0,0.253,0c7.327-0.068,13.761-2.183,17.199-5.68
			c1.703-1.74,2.595-3.771,2.584-5.863l-0.127-16.411c-0.047-5.253-2.035-10.178-5.605-13.858
			c-3.037-3.144-6.908-4.994-11.079-5.495v-6.55c0.788,1.318,1.629,2.605,2.649,3.749c4.406,4.931,10.576,7.652,17.39,7.673
			c0.036,0,0.068,0,0.105,0c13.51,0,21.499-8.416,28.081-17.244c1.233-1.539,3.011-3.032,5.157-2.942
			c-1.725,0.121-3.354,1.076-4.261,2.689c-0.808,1.413-1.013,3.069-0.564,4.646c0.438,1.577,1.466,2.88,2.885,3.676
			c1.097,0.617,2.283,0.907,3.47,0.907c2.479,0,4.889-1.297,6.19-3.606c2.241-4.008,0.817-9.098-3.174-11.344
			c-1.45-0.817-2.938-1.207-4.409-1.25c1.013-1.392,1.999-2.811,3.038-4.123c8.306-10.463,13.426-16.338,22.248-14.967
			c3.544,0.543,6.666,2.479,8.796,5.464c2.199,3.069,3.08,6.977,2.405,10.694c-1.044,5.822-6.66,9.692-12.451,8.664
			c-1.191-0.227-2.294,0.564-2.505,1.746c-0.211,1.176,0.57,2.293,1.746,2.504c8.174,1.493,15.989-3.986,17.46-12.149
			c0.87-4.856-0.274-9.962-3.143-13.979c-2.663-3.729-6.545-6.173-10.942-7.038C183.355,95.791,187.227,93.357,189.895,89.631z
			 M40.309,64.757c-1.042-0.583-2.36-0.208-2.943,0.828c-0.195,0.351-0.288,0.733-0.274,1.107c-0.541-1.134-0.546-2.513,0.113-3.694
			c0.512-0.902,1.455-1.416,2.423-1.416c0.459,0,0.928,0.113,1.355,0.355c0.417,0.235,0.712,0.612,0.838,1.076
			c0.129,0.458,0.069,0.943-0.168,1.36C41.4,64.86,40.783,65.034,40.309,64.757z M41.674,128.937
			c0.232,0.417,0.292,0.896,0.164,1.355c-0.129,0.459-0.433,0.844-0.844,1.076c-1.345,0.748-3.035,0.269-3.778-1.05
			c-0.665-1.182-0.665-2.558-0.119-3.696c-0.013,0.369,0.079,0.759,0.274,1.107c0.577,1.033,1.901,1.413,2.942,0.822
			C40.735,128.331,41.437,128.521,41.674,128.937z M88.676,133.762c-3.581,3.997-8.614,6.212-14.175,6.228c-0.026,0-0.058,0-0.092,0
			c-11.518,0-18.251-6.955-24.482-15.313c-0.024-0.026-0.024-0.068-0.045-0.101c-0.058-0.073-0.119-0.121-0.177-0.2
			c-1.081-1.455-2.149-2.932-3.225-4.435c-1.69-2.368-3.365-4.726-5.102-6.903c-6.254-7.878-11.854-14.815-19.831-16.387
			c7.971-1.582,13.582-8.496,19.831-16.364c1.737-2.191,3.412-4.541,5.102-6.917c1.081-1.516,2.16-3.014,3.251-4.482
			c0.047-0.058,0.108-0.103,0.15-0.16c0.021-0.032,0.026-0.071,0.05-0.104c6.23-8.353,12.954-15.303,24.471-15.303
			c0.026,0,0.061,0,0.092,0c5.561,0.016,10.594,2.231,14.175,6.236c2.489,2.787,4.05,6.328,4.796,10.165
			c-1.015-0.817-2.194-1.487-3.56-1.957c-5.049-1.727-10.552,0.979-12.279,6.017c-1.458,4.271,0.82,8.925,5.071,10.373
			c0.746,0.253,1.511,0.383,2.272,0.383c1.042,0,2.086-0.237,3.045-0.707c1.674-0.814,2.927-2.241,3.528-3.997
			c0.522-1.516,0.425-3.148-0.282-4.593c-0.706-1.442-1.927-2.519-3.451-3.035c-1.123-0.385-2.354,0.216-2.737,1.35v0.006
			c-0.599,0.701-0.723,1.716-0.201,2.521c0.515,0.804,1.464,1.134,2.344,0.912c0.042,0.066,0.129,0.077,0.164,0.146
			c0.198,0.406,0.227,0.864,0.079,1.292c-0.227,0.675-0.701,1.21-1.34,1.523c-0.63,0.306-1.35,0.356-2.024,0.119
			c-2.001-0.683-3.067-2.88-2.381-4.894c0.958-2.787,4.002-4.277,6.795-3.325c4.638,1.593,5.015,5.756,4.464,9.112
			c-1.094,3.209-3.04,6.064-5.746,8.237c-3.762,3.024-8.482,4.385-13.273,3.876c-7.683-0.841-13.257-7.776-12.419-15.459
			c0.649-5.914,5.978-10.212,11.897-9.559c1.236,0.166,2.252-0.73,2.375-1.911c0.129-1.189-0.73-2.252-1.912-2.376
			c-8.295-0.936-15.752,5.102-16.653,13.381c-0.968,8.878,4.606,16.967,12.841,19.499c-3.488,1.065-6.579,3.135-8.904,6.035
			c-3.069,3.818-4.467,8.606-3.932,13.474c0.902,8.274,8.391,14.312,16.648,13.39c1.187-0.127,2.041-1.191,1.912-2.379
			c-0.124-1.181-1.134-2.057-2.375-1.914c-5.888,0.654-11.243-3.648-11.892-9.555c-0.406-3.724,0.664-7.383,3.008-10.305
			c2.347-2.922,5.69-4.746,9.416-5.157c4.781-0.507,9.506,0.854,13.273,3.881c3.051,2.447,5.121,5.77,6.091,9.497
			c0.24,3.075-0.543,6.45-4.611,7.857c-2.769,0.96-5.843-0.543-6.798-3.322c-0.686-2.02,0.383-4.202,2.392-4.888
			c1.366-0.485,2.885,0.253,3.37,1.646c0.147,0.422,0.113,0.875-0.079,1.286c-0.035,0.063-0.127,0.085-0.169,0.138
			c-0.881-0.222-1.835,0.115-2.354,0.912c-0.52,0.807-0.388,1.83,0.211,2.536c0.382,1.129,1.603,1.725,2.742,1.351
			c1.519-0.527,2.739-1.609,3.446-3.049c0.701-1.434,0.804-3.068,0.279-4.588c-1.258-3.639-5.236-5.568-8.849-4.329
			c-4.256,1.461-6.534,6.102-5.076,10.394c1.376,3.992,5.145,6.519,9.168,6.519c1.036,0,2.091-0.169,3.122-0.522
			c1.268-0.438,2.36-1.049,3.319-1.793C92.689,127.529,91.139,131.009,88.676,133.762z M94.453,97.104v8.704
			c-1.252-1.872-2.705-3.618-4.514-5.068c-2.413-1.936-5.157-3.306-8.055-4.105c2.892-0.799,5.643-2.123,8.05-4.055
			c1.854-1.492,3.349-3.291,4.617-5.224v8.857c0,0.071,0.034,0.129,0.04,0.201C94.52,96.635,94.453,96.862,94.453,97.104z
			 M151.662,64.375c-0.231-0.417-0.301-0.896-0.169-1.355s0.433-0.841,0.844-1.073c1.335-0.757,3.027-0.276,3.771,1.047
			c0.665,1.182,0.665,2.561,0.122,3.699c0.005-0.379-0.079-0.762-0.274-1.112c-0.396-0.701-1.129-1.103-1.894-1.103
			c-0.348,0-0.723,0.093-1.049,0.274c-0.322,0.18-0.606,0.132-0.771,0.092C152.11,64.817,151.826,64.704,151.662,64.375z
			 M98.73,96.904c0.076-0.222,0.142-0.448,0.142-0.696v-8.704c1.253,1.872,2.7,3.618,4.507,5.071
			c2.415,1.938,5.168,3.261,8.062,4.061c-2.9,0.799-5.643,2.165-8.062,4.105c-1.852,1.487-3.347,3.291-4.609,5.227v-8.857
			C98.78,97.033,98.735,96.98,98.73,96.904z M152.532,128.425c0.158,0,0.332,0.048,0.485,0.138c1.039,0.574,2.357,0.2,2.942-0.833
			c0.195-0.349,0.285-0.729,0.274-1.107c0.538,1.139,0.543,2.515-0.11,3.696c-0.76,1.334-2.447,1.798-3.781,1.06
			c-0.417-0.231-0.718-0.611-0.839-1.075c-0.132-0.459-0.068-0.944,0.169-1.36C151.842,128.616,152.179,128.425,152.532,128.425z
			 M151.941,113.038c-1.74,2.184-3.411,4.535-5.104,6.908c-1.065,1.498-2.13,2.985-3.206,4.419
			c-0.063,0.085-0.132,0.138-0.195,0.222c-0.021,0.037-0.026,0.074-0.047,0.105c-6.233,8.364-12.957,15.304-24.475,15.304
			c-0.026,0-0.058,0-0.09,0c-5.563-0.016-10.594-2.23-14.175-6.233c-2.489-2.79-4.05-6.328-4.801-10.156
			c1.015,0.807,2.193,1.477,3.557,1.945c1.033,0.343,2.094,0.533,3.122,0.533c4.023,0,7.788-2.537,9.165-6.545
			c1.455-4.266-0.823-8.917-5.073-10.372c-1.767-0.602-3.649-0.491-5.315,0.337c-1.683,0.823-2.927,2.236-3.525,3.997
			c-0.524,1.509-0.428,3.144,0.279,4.588c0.704,1.445,1.928,2.521,3.457,3.038c1.118,0.38,2.352-0.211,2.736-1.351l0,0
			c0.591-0.712,0.723-1.719,0.201-2.531c-0.522-0.801-1.467-1.134-2.353-0.912c-0.042-0.068-0.121-0.079-0.152-0.143
			c-0.201-0.4-0.237-0.864-0.09-1.286c0.227-0.675,0.701-1.219,1.339-1.524c0.628-0.301,1.351-0.354,2.025-0.121
			c2.004,0.686,3.069,2.879,2.384,4.894c-0.965,2.784-4.008,4.282-6.803,3.327c-4.63-1.598-5.013-5.753-4.456-9.117
			c1.097-3.206,3.032-6.064,5.737-8.237c3.766-3.017,8.475-4.377,13.273-3.87c7.684,0.844,13.257,7.772,12.419,15.456
			c-0.648,5.911-6.001,10.193-11.897,9.561c-1.181-0.147-2.251,0.733-2.367,1.914c-0.132,1.197,0.728,2.252,1.909,2.368
			c8.263,0.896,15.751-5.094,16.653-13.373c0.976-8.892-4.604-16.971-12.841-19.504c3.491-1.063,6.586-3.133,8.906-6.03
			c3.069-3.818,4.467-8.604,3.929-13.479c-0.901-8.273-8.379-14.304-16.647-13.381c-1.187,0.124-2.041,1.191-1.909,2.375
			s1.197,2.091,2.367,1.912c5.901-0.648,11.243,3.649,11.892,9.558c0.406,3.72-0.664,7.38-3.006,10.302
			c-2.347,2.921-5.689,4.749-9.418,5.158c-4.777,0.503-9.503-0.852-13.273-3.876c-3.043-2.452-5.117-5.774-6.088-9.492
			c-0.24-3.08,0.543-6.46,4.611-7.857c2.779-0.941,5.849,0.538,6.798,3.319c0.686,2.02-0.385,4.213-2.395,4.899
			c-1.371,0.469-2.89-0.266-3.369-1.648c-0.138-0.422-0.111-0.881,0.089-1.284c0.032-0.071,0.116-0.087,0.158-0.147
			c0.881,0.222,1.83-0.103,2.357-0.912c0.517-0.81,0.385-1.83-0.211-2.531c-0.385-1.129-1.608-1.73-2.742-1.345
			c-1.519,0.517-2.744,1.598-3.451,3.04c-0.701,1.442-0.799,3.071-0.282,4.596c0.999,2.882,3.718,4.696,6.597,4.696
			c0.76,0,1.509-0.124,2.252-0.377c4.256-1.453,6.534-6.101,5.078-10.383c-1.74-5.039-7.251-7.723-12.292-6.007
			c-1.261,0.438-2.357,1.061-3.312,1.793c0.759-3.772,2.31-7.256,4.762-10.006c3.581-4,8.611-6.215,14.175-6.23
			c11.617-0.066,18.331,6.911,24.563,15.293c0.021,0.031,0.026,0.082,0.053,0.113c0.053,0.068,0.122,0.113,0.175,0.189
			c1.081,1.464,2.141,2.943,3.227,4.459c1.693,2.37,3.365,4.725,5.105,6.913c6.243,7.86,11.812,14.774,19.785,16.366
			C163.76,98.233,158.19,105.169,151.941,113.038z"/>
	</g>
</g>
<g>
</g>
<g>
</g>
<g>
</g>
<g>
</g>
<g>
</g>
<g>
</g>
<g>
</g>
<g>
</g>
<g>
</g>
<g>
</g>
<g>
</g>
<g>
</g>
<g>
</g>
<g>
</g>
<g>
</g>
</svg>
