<?xml version="1.0" encoding="iso-8859-1"?>
<!-- Generator: Adobe Illustrator 19.0.0, SVG Export Plug-In . SVG Version: 6.00 Build 0)  -->
<svg version="1.1" id="Capa_1" xmlns="http://www.w3.org/2000/svg" xmlns:xlink="http://www.w3.org/1999/xlink" x="0px" y="0px"
	 viewBox="0 0 512.002 512.002" style="enable-background:new 0 0 512.002 512.002;" xml:space="preserve">
<g>
	<g>
		<path fill="#fff" d="M379.267,45c-28.948,0-52.5,23.552-52.5,52.5s23.551,52.5,52.5,52.5c28.949,0,52.5-23.552,52.5-52.5
			S408.215,45,379.267,45z M379.267,135c-20.678,0-37.5-16.822-37.5-37.5s16.822-37.5,37.5-37.5c20.678,0,37.5,16.822,37.5,37.5
			S399.945,135,379.267,135z"/>
	</g>
</g>
<g>
	<g>
		<path fill="#fff" d="M162.733,360c4.142,0,7.5-3.357,7.5-7.5V237.54c26.762-0.252,51.885-10.785,70.836-29.736
			c2.929-2.93,2.929-7.678,0-10.607c-2.928-2.928-7.677-2.928-10.606-0.001c-16.118,16.119-37.476,25.079-60.23,25.332V192.5
			c0-15.163-12.336-27.5-27.5-27.5h-50c-15.164,0-27.5,12.337-27.5,27.5v67.259c-9.693,11.989-15,26.936-15,42.406V352.5
			c0,4.143,3.358,7.5,7.5,7.5h22.249l-7.737,134.068c-0.195,3.382,1.901,6.476,5.116,7.547l30,10
			c0.787,0.262,1.586,0.387,2.373,0.387c3.14,0,6.066-1.987,7.114-5.13c1.31-3.93-0.814-8.178-4.744-9.487L87.552,489.2L95.007,360
			h44.976l-7.737,134.068c-0.195,3.382,1.901,6.476,5.116,7.547l30,10c0.787,0.262,1.586,0.387,2.373,0.387
			c3.14,0,6.066-1.987,7.114-5.13c1.31-3.93-0.814-8.178-4.744-9.487l-24.553-8.185l7.455-129.2H162.733z M80.233,192.5
			c0-6.893,5.608-12.5,12.5-12.5h50c6.893,0,12.5,5.607,12.5,12.5v28.909c-17.794-2.881-34.2-11.215-47.197-24.212
			c-2.929-2.928-7.678-2.928-10.606,0c-2.929,2.93-2.929,7.678,0,10.607c15.839,15.839,35.989,25.795,57.803,28.788V255h-75V192.5z
			 M65.233,345v-42.835c0-11.686,3.905-22.981,11.038-32.165h78.962v75H65.233z"/>
	</g>
</g>
<g>
	<g>
		<path fill="#fff" d="M140.068,50.001c4.762-5.312,7.665-12.323,7.665-20.001c0-16.542-13.458-30-30-30s-30,13.458-30,30
			c0,7.678,2.903,14.69,7.665,20.001C77.59,58.41,65.233,76.536,65.233,97.5c0,28.948,23.552,52.5,52.5,52.5
			c28.949,0,52.5-23.552,52.5-52.5C170.233,76.536,157.877,58.41,140.068,50.001z M117.733,15c8.271,0,15,6.729,15,15
			s-6.729,15-15,15s-15-6.729-15-15S109.462,15,117.733,15z M117.733,135c-20.678,0-37.5-16.822-37.5-37.5S97.056,60,117.733,60
			c20.678,0,37.5,16.822,37.5,37.5S138.411,135,117.733,135z"/>
	</g>
</g>
<g>
	<g>
		<path fill="#fff" d="M430.888,185.597C427.818,173.764,417.047,165,404.267,165h-50c-15.164,0-27.5,12.337-27.5,27.5V225h-53.5v-45.755
			c17.096-3.484,30-18.635,30-36.745v-30c0-4.143-3.358-7.5-7.5-7.5h-3.646l-3.956-23.733C287.562,77.65,284.433,75,280.767,75h-30
			c-3.667,0-6.795,2.65-7.398,6.267L239.413,105h-3.646c-4.142,0-7.5,3.357-7.5,7.5v30c0,18.11,12.904,33.261,30,36.745V292.5
			c0,4.143,3.358,7.5,7.5,7.5c4.142,0,7.5-3.357,7.5-7.5V240h53.5v52.5c0,13.4,5.053,25.638,13.346,34.925l9.336,161.775
			l-24.553,8.185c-3.93,1.31-6.053,5.558-4.744,9.487c1.048,3.143,3.974,5.13,7.114,5.13c0.786,0,1.586-0.125,2.373-0.387l30-10
			c3.214-1.071,5.311-4.165,5.116-7.547l-8.921-154.609c7.059,3.537,15.015,5.541,23.434,5.541c7.695,0,15.001-1.678,21.592-4.665
			l8.59,148.865l-24.553,8.185c-3.93,1.31-6.053,5.558-4.744,9.487c1.048,3.143,3.974,5.13,7.114,5.13
			c0.786,0,1.586-0.125,2.373-0.387l30-10c3.214-1.071,5.311-4.165,5.116-7.547l-9.432-163.461
			c10.115-9.576,16.445-23.112,16.445-38.107v-91.21c8.729,3.096,15,11.433,15,21.21v115c0,4.143,3.358,7.5,7.5,7.5
			c4.142,0,7.5-3.357,7.5-7.5v-115C461.767,204.083,448.417,188.735,430.888,185.597z M257.12,90h17.293l2.5,15H254.62L257.12,90z
			 M265.767,165c-12.407,0-22.5-10.094-22.5-22.5V120h42.469c0.034,0,2.531,0,2.531,0v22.5C288.267,154.906,278.174,165,265.767,165
			z M379.267,330c-18.11,0-33.262-12.904-36.746-30h73.491C412.528,317.096,397.377,330,379.267,330z M416.767,285h-75v-92.5
			c0-6.893,5.607-12.5,12.5-12.5h50c6.893,0,12.5,5.607,12.5,12.5V285z"/>
	</g>
</g>
<g>
</g>
<g>
</g>
<g>
</g>
<g>
</g>
<g>
</g>
<g>
</g>
<g>
</g>
<g>
</g>
<g>
</g>
<g>
</g>
<g>
</g>
<g>
</g>
<g>
</g>
<g>
</g>
<g>
</g>
</svg>
