<?xml version="1.0" encoding="iso-8859-1"?>
<!-- Generator: Adobe Illustrator 19.0.0, SVG Export Plug-In . SVG Version: 6.00 Build 0)  -->
<svg version="1.1" id="Capa_1" xmlns="http://www.w3.org/2000/svg" xmlns:xlink="http://www.w3.org/1999/xlink" x="0px" y="0px"
	 viewBox="0 0 512.001 512.001" style="enable-background:new 0 0 512.001 512.001;" xml:space="preserve">
<g>
	<g>
		<g>
			<path d="M133.691,180.021h116.484c4.143,0,7.5-3.358,7.5-7.5c0-4.142-3.357-7.5-7.5-7.5H133.691c-4.143,0-7.5,3.358-7.5,7.5
				C126.191,176.662,129.549,180.021,133.691,180.021z"/>
			<path d="M133.691,218.849h38.828c4.143,0,7.5-3.358,7.5-7.5c0-4.142-3.357-7.5-7.5-7.5h-38.828c-4.143,0-7.5,3.358-7.5,7.5
				C126.191,215.49,129.549,218.849,133.691,218.849z"/>
			<path d="M133.691,150.898h155.313c4.143,0,7.5-3.358,7.5-7.5c0-4.142-3.357-7.5-7.5-7.5H133.691c-4.143,0-7.5,3.358-7.5,7.5
				C126.191,147.542,129.549,150.898,133.691,150.898z"/>
			<path d="M465.672,0H123.984C98.439,0,77.656,20.784,77.656,46.328v68.435c0,4.142,3.357,7.5,7.5,7.5s7.5-3.358,7.5-7.5V46.328
				C92.656,29.055,106.71,15,123.984,15h307.594c-7.591,8.254-12.235,19.257-12.235,31.328v71.83l-27.392,27.392l-19.008-19.007
				c-4.938-4.938-12.296-6.404-18.752-3.73c-6.453,2.673-10.622,8.913-10.622,15.897v37.163c0,3.182-1.239,6.174-3.489,8.425
				l-28.635,28.633c-14.297,14.297-17.266,35.687-8.93,52.944l-6.815,6.815c-10.558,10.559-12.108,26.759-4.664,38.984
				L189.802,412.907v-40.223c12.123-1.612,23.329-7.11,32.123-15.904c21.848-21.848,21.848-57.397,0-79.245l-34.319-34.32
				c-1.407-1.407-3.314-2.197-5.304-2.197s-3.896,0.79-5.304,2.197l-34.319,34.32c-21.848,21.848-21.848,57.397,0,79.246
				c8.794,8.794,20,14.292,32.123,15.904v54.296c0,0.296,0.021,0.586,0.055,0.873L105.709,497H80.422
				c7.59-8.254,12.235-19.257,12.235-31.328v-48.535V142.913c0-4.142-3.357-7.5-7.5-7.5s-7.5,3.358-7.5,7.5v266.724H12.354
				C5.542,409.637,0,415.179,0,421.99v43.682C0,491.217,20.783,512,46.328,512h341.688c25.545,0,46.328-20.783,46.328-46.328
				V270.164c1-0.268,2.038-0.418,3.101-0.418h37.162c6.984,0,13.225-4.169,15.897-10.623c2.673-6.453,1.209-13.813-3.729-18.752
				l-19.008-19.008l30.389-30.389c1.406-1.406,2.196-3.314,2.196-5.303s-0.79-3.897-2.196-5.303l-8.694-8.694
				c-9.005-9.004-21.093-14.021-33.602-14.218c-0.198-12.507-5.214-24.597-14.217-33.6l-7.299-7.299v-14.193h65.303
				c6.812,0,12.354-5.542,12.354-12.354V46.328C512,20.784,491.217,0,465.672,0z M174.801,357.503
				c-8.103-1.489-15.564-5.377-21.515-11.329c-11.656-11.656-14.811-28.634-9.484-43.181l30.999,31V357.503z M174.802,312.779
				l-21.516-21.516c-0.522-0.522-1.103-0.946-1.719-1.282c0.553-0.625,1.122-1.241,1.719-1.839l21.516-21.517V312.779z
				 M77.656,465.672c0,17.274-14.054,31.328-31.328,31.328S15,482.946,15,465.672v-41.035h62.656V465.672z M322.053,223.536
				l28.635-28.633c5.083-5.084,7.883-11.842,7.883-19.031v-37.163c0-1.219,0.741-1.782,1.362-2.039
				c0.62-0.257,1.541-0.385,2.404,0.479l38.341,38.34c3.835,3.835,6.539,8.444,7.979,13.532c-9.428,1.433-18.496,5.765-25.742,13.01
				l-48.046,48.047c-5.575,5.575-9.128,12.631-10.298,20.28l-2.517-2.517C309.839,255.626,309.839,235.751,322.053,223.536z
				 M306.309,283.294l4.996-4.996c0.049,0.049,0.093,0.1,0.142,0.149l20.592,20.592c0.302,0.302,0.627,0.565,0.964,0.805
				c0.597,0.692,1.213,1.371,1.866,2.024c0.049,0.049,0.101,0.094,0.15,0.143l-4.996,4.996c-6.539,6.538-17.177,6.537-23.714,0
				C299.771,300.47,299.771,289.832,306.309,283.294z M189.801,266.625l21.516,21.516c0.599,0.598,1.167,1.214,1.72,1.84
				c-0.616,0.336-1.198,0.76-1.72,1.282l-21.516,21.516V266.625z M189.801,333.993l30.999-31
				c5.328,14.547,2.174,31.525-9.483,43.181c-5.951,5.952-13.411,9.84-21.516,11.329V333.993z M419.344,465.672
				c0,17.274-14.054,31.328-31.328,31.328H126.923l90.007-90.007c0,0,4.717,0.031,6.555,0.031h36.679
				c1.506,9.254,5.807,18.138,12.928,25.259c9.032,9.032,20.896,13.547,32.759,13.547c11.864,0,23.728-4.516,32.76-13.547
				l27.456-27.456c1.406-1.406,2.196-3.314,2.196-5.303s-0.79-3.897-2.196-5.303l-27.456-27.456
				c-18.064-18.063-47.454-18.063-65.519,0c-7.121,7.121-11.422,16.005-12.928,25.259h-28.266l69.745-69.745
				c5.055,3.078,10.787,4.624,16.522,4.624c8.135,0,16.271-3.097,22.464-9.29l6.796-6.796c6.219,3.018,13.087,4.62,20.203,4.62
				c12.374,0,24.009-4.819,32.759-13.569l18.957-18.957V465.672z M275.444,392.024c1.316-5.373,4.067-10.463,8.256-14.652
				c6.107-6.107,14.13-9.161,22.151-9.161c8.022,0,16.045,3.054,22.152,9.161l14.653,14.652H275.444z M342.657,407.024
				l-14.653,14.653c-5.917,5.917-13.784,9.175-22.151,9.175c-8.368,0-16.235-3.259-22.152-9.176
				c-4.189-4.189-6.941-9.279-8.256-14.652H342.657z M476.168,250.977c0.861,0.863,0.735,1.785,0.478,2.406
				c-0.257,0.622-0.82,1.363-2.039,1.363h-37.162c-7.189,0-13.948,2.799-19.032,7.883l-28.633,28.633
				c-5.917,5.917-13.784,9.176-22.151,9.176c-8.368,0-16.235-3.259-22.153-9.176c-4.083-4.084-6.333-9.513-6.333-15.289
				c0-5.775,2.25-11.204,6.334-15.288l48.047-48.048c6.107-6.107,14.129-9.161,22.151-9.161c8.022,0,16.045,3.054,22.152,9.161
				L476.168,250.977z M440.319,164.273c-0.442,2.423,0.334,4.908,2.075,6.648c1.741,1.741,4.221,2.516,6.648,2.075
				c10.872-1.981,22.018,1.489,29.812,9.284l3.392,3.391l-25.086,25.085l-8.726-8.725c-6.888-6.888-15.425-11.141-24.35-12.776
				c-1.694-9.182-6.158-17.732-12.798-24.373l-8.726-8.726l25.085-25.086l3.391,3.391
				C438.831,142.255,442.301,153.401,440.319,164.273z M497,87.363h-62.656V46.328c0-17.274,14.054-31.328,31.328-31.328
				C482.946,15,497,29.055,497,46.328V87.363z"/>
			<path d="M133.691,82.949h58.242c4.143,0,7.5-3.358,7.5-7.5c0-4.142-3.357-7.5-7.5-7.5h-58.242c-4.143,0-7.5,3.358-7.5,7.5
				C126.191,79.591,129.549,82.949,133.691,82.949z"/>
			<path d="M133.691,53.828h97.07c4.143,0,7.5-3.358,7.5-7.5c0-4.142-3.357-7.5-7.5-7.5h-97.07c-4.143,0-7.5,3.358-7.5,7.5
				C126.191,50.47,129.549,53.828,133.691,53.828z"/>
			<path d="M133.691,121.777h155.313c4.143,0,7.5-3.358,7.5-7.5c0-4.142-3.357-7.5-7.5-7.5H133.691c-4.143,0-7.5,3.358-7.5,7.5
				C126.191,118.419,129.549,121.777,133.691,121.777z"/>
		</g>
	</g>
</g>
<g>
</g>
<g>
</g>
<g>
</g>
<g>
</g>
<g>
</g>
<g>
</g>
<g>
</g>
<g>
</g>
<g>
</g>
<g>
</g>
<g>
</g>
<g>
</g>
<g>
</g>
<g>
</g>
<g>
</g>
</svg>
