<?xml version="1.0" encoding="iso-8859-1"?>
<!-- Generator: Adobe Illustrator 16.0.0, SVG Export Plug-In . SVG Version: 6.00 Build 0)  -->
<!DOCTYPE svg PUBLIC "-//W3C//DTD SVG 1.1//EN" "http://www.w3.org/Graphics/SVG/1.1/DTD/svg11.dtd">
<svg version="1.1" id="Capa_1" xmlns="http://www.w3.org/2000/svg" xmlns:xlink="http://www.w3.org/1999/xlink" x="0px" y="0px"
	 width="223.208px" height="223.208px" viewBox="0 0 223.208 223.208" style="enable-background:new 0 0 223.208 223.208;"
	 xml:space="preserve">
<g>
	<g>
		<path d="M2.082,101.895c-1.361,0.231-2.277,1.516-2.046,2.874c0.231,1.354,1.452,2.289,2.874,2.046
			c17.074-2.911,33.384,9.085,36.353,26.664c0.1,0.499,0.386,0.877,0.697,1.218c0.396,1.133,0.755,2.277,1.224,3.398
			c6.884,16.537,19.771,29.398,36.312,36.236c6.662,2.746,13.643,4.128,20.651,4.128c3.943,0,7.864-0.48,11.737-1.357
			c0.441,0.438,1.06,0.706,1.72,0.706c0.661,0,1.275-0.268,1.721-0.706c3.872,0.877,7.794,1.357,11.733,1.357
			c6.996,0,13.987-1.382,20.654-4.128c16.538-6.838,29.447-19.692,36.31-36.236c0.469-1.121,0.822-2.266,1.218-3.398
			c0.329-0.347,0.621-0.73,0.707-1.218c2.978-17.579,19.241-29.575,36.352-26.664c1.389,0.243,2.643-0.691,2.874-2.046
			c0.231-1.358-0.688-2.643-2.046-2.874c-13.226-2.232-25.988,3.199-34.062,13.085c0.371-9.45-1.218-18.94-4.896-27.931
			c4.944-1.541,10.692-3.998,9.225-14.011c-0.621-4.314-4.451-7.758,0.335-20.046c0,0-8.147,1.017-13.359,8.521
			c-2.533-7.374-8.586-8.704-7.928-16.766c0,0-13.957,7.84-6.138,21.711c-8.823-3.03-16.101,1.181-16.101,1.181
			c11.235,6.902,10.267,11.965,12.374,15.774c5.261,9.49,11.837,7.084,16.879,5.2c0.012,0.031,0,0.064,0.012,0.088
			c5.298,12.806,6.083,26.691,2.484,39.844c-0.128,0.414-0.194,0.828-0.311,1.242c-0.646,2.156-1.376,4.287-2.223,6.395
			c-4.256,10.205-11.015,18.84-19.558,25.367c5.455-8.257,7.52-18.486,5.145-28.4c3.837-3.422,9.226-10.838-4.037-18.602
			c-2.618-1.535-8.445-4.628-11.873-10.684c0,0-8.83,32.902,11.191,31.301c3.105,14.809-5.078,30.307-20.046,36.164
			c-0.279,0.098-0.511,0.268-0.718,0.45c-5.407,1.425-10.961,1.948-16.466,1.485c12.301-5.748,21.897-15.697,27.109-28.308
			c0.523-1.279-0.085-2.734-1.364-3.246c-1.267-0.523-2.733,0.073-3.251,1.353c-5.006,12.129-14.426,21.58-26.562,26.621
			c-0.949,0.39-1.924,0.707-2.898,1.041v-17.993c5.103-0.572,9.877-2.862,13.519-6.759c4.141-4.433,6.381-10.297,6.351-16.502
			l-0.067-7.429c-0.012-0.828-0.438-1.607-1.145-2.07c-0.706-0.45-1.589-0.523-2.351-0.183c-0.194,0.098-18.961,8.135-30.455,0.378
			c-1.142-0.768-2.685-0.476-3.458,0.67c-0.773,1.145-0.475,2.703,0.661,3.471c10.525,7.112,25.148,3.55,31.761,1.352l0.036,3.873
			c0.049,4.92-1.723,9.548-5.005,13.043c-3.233,3.464-7.539,5.395-12.121,5.431c-0.058,0-0.106,0-0.143,0
			c-9.466,0-17.217-8.122-17.287-18.182l-0.162-19.424c-0.018-1.961,1.696-4.01,4.707-5.6c3.562-1.891,8.443-2.956,13.728-3.002
			c8.379,0.122,14.547,3.264,14.571,6.281c0.006,0.347-0.956,1.735-4.086,3.196c-3.093,1.425-6.887,2.308-10.187,2.339
			c-6.376-0.135-10.589-1.498-11.064-2.034c0.207-0.938,3.535-3.849,10.264-3.525c3.15,0.128,5.8,0.98,6.89,2.247
			c0.907,1.022,2.479,1.133,3.507,0.23c1.035-0.913,1.146-2.49,0.231-3.525c-2.07-2.353-5.784-3.754-10.448-3.942
			c-5.465-0.192-10.431,1.315-13.33,4.119c-1.41,1.353-2.131,2.862-2.119,4.372c0.061,6.973,14.417,7.027,16.1,7.039
			c3.958-0.024,8.519-1.084,12.239-2.801c4.536-2.107,7.015-4.865,6.99-7.77c-0.079-6.488-8.562-11.399-19.619-11.226
			c-6.096,0.049-11.783,1.321-16.03,3.586c-4.789,2.536-7.407,6.104-7.361,10.056l0.149,19.425
			c0.125,11.855,8.729,21.488,19.702,22.84v18.03c-0.972-0.341-1.945-0.651-2.905-1.041c-12.108-5.042-21.549-14.48-26.555-26.634
			c-0.53-1.279-1.985-1.876-3.249-1.353c-1.279,0.524-1.891,1.985-1.367,3.258c5.212,12.623,14.809,22.561,27.112,28.309
			c-5.508,0.45-11.043-0.049-16.468-1.485c-0.207-0.184-0.436-0.354-0.715-0.463c-14.967-5.846-23.154-21.337-20.049-36.146
			c20.015,1.583,11.186-31.308,11.186-31.308c-3.422,6.056-9.258,9.149-11.864,10.684c-13.262,7.775-7.901,15.181-4.041,18.615
			c-2.375,9.9-0.319,20.13,5.136,28.387c-8.534-6.527-15.293-15.174-19.546-25.367c-0.88-2.113-1.607-4.262-2.232-6.43
			c-0.106-0.396-0.188-0.805-0.301-1.188c-3.583-13.165-2.798-27.051,2.484-39.863c0.012-0.024,0-0.058,0.012-0.088
			c5.03,1.885,11.615,4.29,16.879-5.2c2.107-3.809,1.145-8.872,12.37-15.774c0,0-7.276-4.217-16.1-1.181
			c7.812-13.877-6.135-21.711-6.135-21.711c0.648,8.071-5.407,9.398-7.931,16.767c-5.222-7.505-13.356-8.522-13.356-8.522
			c4.783,12.291,0.935,15.725,0.316,20.045c-1.434,10.014,4.29,12.471,9.234,14.011c-3.678,9.003-5.261,18.493-4.887,27.931
			C28.07,105.107,15.295,99.663,2.082,101.895z"/>
	</g>
</g>
<g>
</g>
<g>
</g>
<g>
</g>
<g>
</g>
<g>
</g>
<g>
</g>
<g>
</g>
<g>
</g>
<g>
</g>
<g>
</g>
<g>
</g>
<g>
</g>
<g>
</g>
<g>
</g>
<g>
</g>
</svg>
